<svg width="40" height="41" viewBox="0 0 40 41" fill="none" xmlns="http://www.w3.org/2000/svg">
<g clip-path="url(#clip0_5857_100550)">
<path fill-rule="evenodd" clip-rule="evenodd" d="M8.64328 37.6506C4.01836 34.9765 0.90625 29.9772 0.90625 24.2507C0.90625 16.1015 7.20828 9.42438 15.2046 8.82649V15.303C10.7739 15.8765 7.35117 19.6638 7.35117 24.2507C7.35117 27.5919 9.16727 30.5088 11.8662 32.0684L8.64328 37.6506ZM21.1761 9.08391C21.2255 7.72961 22.2473 6.81844 23.6052 6.35016C24.9288 7.56758 26.9637 7.56766 28.2873 6.35016C29.6452 6.81852 30.667 7.72961 30.7164 9.08391V11.3191H21.176L21.1761 9.08391ZM29.5546 18.6321C29.604 17.2778 30.6259 16.3666 31.9837 15.8984C33.3074 17.1158 35.3421 17.1158 36.6658 15.8984C38.0237 16.3666 39.0455 17.2778 39.0949 18.6321V20.8673H29.5545L29.5546 18.6321ZM11.6041 27.0345V29.2697H21.1445V27.0345C21.0951 25.6802 20.0732 24.7691 18.7153 24.3007C17.3916 25.5181 15.3569 25.5181 14.0332 24.3007C12.6753 24.769 11.6534 25.6802 11.6041 27.0345ZM34.3248 10.8295C35.7177 10.8295 36.8469 11.9587 36.8469 13.3516C36.8469 14.7445 35.7177 15.8738 34.3248 15.8738C32.9319 15.8738 31.8026 14.7445 31.8026 13.3516C31.8026 11.9586 32.9318 10.8295 34.3248 10.8295ZM25.9462 1.28125C27.3392 1.28125 28.4684 2.41047 28.4684 3.80344C28.4684 5.19641 27.3392 6.32563 25.9462 6.32563C24.5533 6.32563 23.4241 5.19641 23.4241 3.80344C23.4241 2.41047 24.5534 1.28125 25.9462 1.28125ZM16.3743 19.2318C14.9813 19.2318 13.8522 20.361 13.8522 21.7539C13.8522 23.1468 14.9814 24.276 16.3743 24.276C17.7672 24.276 18.8964 23.1468 18.8964 21.7539C18.8964 20.361 17.7672 19.2318 16.3743 19.2318ZM17.544 8.82649V15.303C21.5918 15.827 24.7981 19.0332 25.3221 23.0811H31.7986C31.7664 22.6504 31.7156 22.2249 31.6488 21.8048H28.6172V18.615C28.6342 17.6775 29.044 16.8613 29.6227 16.2638C28.6993 14.7354 27.5185 13.3798 26.1408 12.2566H20.2386V9.27039C19.3677 9.04633 18.4673 8.89555 17.544 8.82649ZM31.7985 25.4203H25.322C24.6246 30.8079 19.3197 34.3743 14.0467 32.9701L10.7577 38.6668C12.4987 39.3457 14.3929 39.7187 16.3743 39.7187C24.5235 39.7187 31.2006 33.4166 31.7985 25.4203Z" fill="#8A7CC9"/>
<path d="M24.8359 25.4774L40.0007 32.3822L24.8359 39.8687L9.67113 32.3822L24.8359 25.4774Z" fill="black"/>
<path d="M24.8359 22.368L40.0007 29.2728L24.8359 36.7593L9.67113 29.2728L24.8359 22.368Z" fill="white"/>
<path fill-rule="evenodd" clip-rule="evenodd" d="M24.8359 22.9004L10.8011 29.2907L24.8359 36.2193L38.8707 29.2907L24.8359 22.9004ZM24.8359 22.368L9.67113 29.2728L24.8359 36.7593L40.0007 29.2728L24.8359 22.368Z" fill="black"/>
<mask id="mask0_5857_100550" style="mask-type:alpha" maskUnits="userSpaceOnUse" x="17" y="25" width="16" height="8">
<path d="M25.2031 32.1852L18.0663 28.6618L25.2031 25.4118L32.3399 28.6618L25.2031 32.1852Z" fill="white" stroke="black" stroke-width="0.21496" stroke-linejoin="bevel"/>
</mask>
<g mask="url(#mask0_5857_100550)">
<path fill-rule="evenodd" clip-rule="evenodd" d="M32.2108 29.391L23.7578 25.1646L24.0325 24.6152L32.4854 28.8417L32.2108 29.391Z" fill="black"/>
<path fill-rule="evenodd" clip-rule="evenodd" d="M30.5233 30.0258L22.0703 25.7993L22.345 25.25L30.7979 29.4765L30.5233 30.0258Z" fill="black"/>
<path fill-rule="evenodd" clip-rule="evenodd" d="M29.2577 30.8715L20.8047 26.645L21.0794 26.0957L29.5323 30.3222L29.2577 30.8715Z" fill="black"/>
</g>
<mask id="mask1_5857_100550" style="mask-type:alpha" maskUnits="userSpaceOnUse" x="12" y="27" width="12" height="7">
<path d="M16.0512 32.9836L12.9285 31.2482L20.3625 27.7382L23.2138 29.4476L16.0512 32.9836Z" fill="white" stroke="black" stroke-width="0.21496" stroke-linejoin="bevel"/>
</mask>
<g mask="url(#mask1_5857_100550)">
<path fill-rule="evenodd" clip-rule="evenodd" d="M27.0936 31.975L18.6406 27.7486L18.9153 27.1992L27.3683 31.4257L27.0936 31.975Z" fill="black"/>
<path fill-rule="evenodd" clip-rule="evenodd" d="M25.3983 32.6078L16.9453 28.3814L17.22 27.832L25.6729 32.0585L25.3983 32.6078Z" fill="black"/>
</g>
</g>
<defs>
<clipPath id="clip0_5857_100550">
<rect width="40" height="40" fill="white" transform="translate(0 0.5)"/>
</clipPath>
</defs>
</svg>
